<svg version="1.1" id="Layer_1" xmlns="http://www.w3.org/2000/svg" xmlns:xlink="http://www.w3.org/1999/xlink" x="0px" y="0px"
	 width="100%" viewBox="0 0 400 400" enable-background="new 0 0 400 400" xml:space="preserve">
<path fill="none" opacity="1.000000" stroke="#000000" stroke-linecap="round" stroke-linejoin="round" stroke-width="8.000000"
	d="
M164.500000,188.500000 
	C162.730103,189.182190 160.940598,189.529709 159.000244,189.541046 
	C151.092957,189.587219 145.015259,195.690826 145.006454,203.500000 
	C144.986160,221.499985 144.983673,239.500015 145.006668,257.500000 
	C145.018738,266.950134 150.549850,272.486816 160.000000,272.493103 
	C188.499985,272.512146 217.001251,272.345551 245.499374,272.577332 
	C256.624481,272.667816 262.659363,267.837097 262.330170,255.504532 
	C261.876190,238.495911 261.918671,221.492737 262.176575,204.502686 
	C262.291992,196.899048 256.066376,189.283478 247.498627,189.389282 
	C222.335800,189.700012 197.166672,189.494476 172.000000,189.509491 
	C169.770798,189.510834 167.552628,189.574615 165.500000,188.500000 
"/>
<path fill="none" opacity="1.000000" stroke="#000000" stroke-linecap="round" stroke-linejoin="round" stroke-width="7.000000"
	d="
M242.000000,188.000000 
	C242.395584,174.561996 244.413879,160.985306 238.988953,148.004623 
	C229.753250,125.905540 200.861435,117.243858 180.477051,132.469284 
	C169.520767,140.652695 164.616959,151.473953 164.964478,165.000916 
	C165.161316,172.662521 165.000000,180.333328 165.000000,188.000000 
"/>
<path fill="none" opacity="1.000000" stroke="#000000" stroke-linecap="round" stroke-linejoin="round" stroke-width="7.000000"
	d="
M195.000000,71.500000 
	C184.348419,72.704201 173.709366,74.113968 163.512680,77.537758 
	C141.608948,84.892502 122.773224,96.913666 106.916092,113.921768 
	C91.208908,130.769012 81.059311,150.427185 75.612610,172.527756 
	C72.352852,185.754593 71.174843,199.294479 72.448326,213.004807 
	C73.957977,229.257721 77.780807,244.753082 84.905365,259.545593 
	C91.254166,272.727417 99.352577,284.567566 109.532951,294.967743 
	C119.747078,305.402405 131.402588,313.946960 144.494125,320.511719 
	C168.521362,332.560150 193.939590,336.920868 220.488861,333.415619 
	C252.433578,329.198059 279.182220,314.828735 301.071381,291.065735 
	C311.761230,279.460815 320.187958,266.405548 325.796539,251.921219 
	C333.340912,232.437668 336.449280,212.168198 334.249207,190.974136 
	C332.820282,177.208618 329.693512,164.184982 324.509094,151.496277 
	C318.614655,137.069778 310.166107,124.280220 299.469788,113.028725 
	C283.952942,96.706505 265.588287,84.925125 244.034882,77.893066 
	C228.166931,72.715942 212.006287,71.132607 195.500000,71.500000 
"/>
</svg>