<svg width="21" height="20" viewBox="0 0 21 20" fill="none" xmlns="http://www.w3.org/2000/svg">
<mask id="mask0_500_1846" style="mask-type:alpha" maskUnits="userSpaceOnUse" x="0" y="0" width="21" height="20">
<rect x="0.436523" width="20.5634" height="20" fill="#D9D9D9"/>
</mask>
<g mask="url(#mask0_500_1846)">
<path d="M4.72045 17.5C4.24921 17.5 3.84579 17.3368 3.51021 17.0104C3.17463 16.684 3.00684 16.2917 3.00684 15.8333V4.16667C3.00684 3.70833 3.17463 3.31597 3.51021 2.98958C3.84579 2.66319 4.24921 2.5 4.72045 2.5H10.7181V4.16667H4.72045V15.8333H10.7181V17.5H4.72045ZM14.1453 14.1667L12.9672 12.9583L15.1521 10.8333H8.14768V9.16667H15.1521L12.9672 7.04167L14.1453 5.83333L18.4294 10L14.1453 14.1667Z" fill="white"/>
</g>
</svg>